<?xml version="1.0" encoding="utf-8"?>
<!-- Designed by Vexels.com - 2016 All Rights Reserved - https://vexels.com/terms-and-conditions/  -->

<svg version="1.1" id="Layer_1" xmlns="http://www.w3.org/2000/svg" xmlns:xlink="http://www.w3.org/1999/xlink" x="0px" y="0px"
	 width="1200px" height="1200px" viewBox="0 0 1200 1200" enable-background="new 0 0 1200 1200" xml:space="preserve">
<g>
	<g>
		<polygon fill="#FFBF23" points="1150,476.538 769.973,421.323 599.98,76.954 430.047,421.323 55.57,475.702 50.016,476.538 
			325,744.577 260.055,1123.046 599.98,944.337 939.906,1123.046 874.965,744.577 		"/>
		<g>
			<g>
				<g>
					<g>
						<g>
							<path fill="#231F20" d="M936.219,1117.991L599.991,941.221l-336.219,176.771l64.211-374.402L55.969,478.458l375.918-54.617
								L599.991,83.216l168.113,340.625l375.918,54.617L872,743.589L936.219,1117.991z M67.906,482.333l266.043,259.313
								l-62.801,366.188L599.991,934.95l328.849,172.885l-62.806-366.188l1.039-1.02l265.009-258.295l-367.664-53.416
								L599.991,95.769L435.577,428.917l-1.448,0.207L67.906,482.333z"/>
							<path fill="#231F20" d="M939.906,1123.067L599.991,944.358l-339.909,178.709L325,744.565L50,476.517l5.565-0.813
								l374.478-54.4l169.948-344.37l169.961,344.369l380.043,55.215L874.984,744.565L939.906,1123.067z M895.758,1093.577
								l36.77,19.336L895.758,1093.577z M268.691,1105.741l-1.229,7.172l31.926-16.785l-31.926,16.785L268.691,1105.741z
								 M599.991,931.815l325.156,170.94L863.05,740.682l2.082-2.041l260.979-254.366l-363.539-52.818L599.991,102.04
								L437.422,431.456l-2.892,0.424L73.883,484.274l263.051,256.407l-62.094,362.074L599.991,931.815z M869.02,742.612v0.012
								l1.047-1.021l267.98-261.202L766.262,426.38l-0.156-0.326l0.156,0.326l371.785,54.021L869.012,742.624L869.02,742.612z
								 M61.934,480.401l269.031,262.223L61.934,480.401L433.73,426.38l0.402-0.813l-0.402,0.813l-1.441,0.205L61.934,480.401z
								 M599.991,89.486L445.18,403.181L599.991,89.486l146.98,297.8L599.991,89.486z"/>
						</g>
					</g>
				</g>
			</g>
		</g>
	</g>
</g>
</svg>
